<svg xmlns="http://www.w3.org/2000/svg" xmlns:xlink="http://www.w3.org/1999/xlink" width="100" height="100" viewBox="0 0 100 100">
    <defs>
        <path id="a" d="M0 0h50.843v45.23H0z"/>
    </defs>
    <g fill="none" fill-rule="evenodd">
        <path fill="#323940" fill-rule="nonzero" d="M0 0h100v100H0z"/>
        <g transform="translate(24 27)">
            <mask id="b" fill="#fff">
                <use xlink:href="#a"/>
            </mask>
            <path fill="#FCBF10" fill-rule="nonzero" d="M27.392 11.337v-.51c4.533-1.383 14.957-2.243 19.55 4.566-7.486.43-15.131.761-19.55-4.056m-6.89 21.365c-1.483 0-2.977.073-4.453.21l8.08-14.701-.272 5.998H22.72a1.487 1.487 0 0 0 0 2.973h1.002l-.059 1.273h-2.005a1.487 1.487 0 0 0 0 2.973h1.87l-.062 1.371a48.95 48.95 0 0 0-2.965-.097m17.31 9.554H3.191c1.574-5.152 11.338-6.581 17.31-6.581 5.972 0 15.736 1.429 17.31 6.58M4.883 15.373c4.601-6.79 15.008-5.928 19.535-4.545v.29c-6.113 4.11-12.312 4.533-19.535 4.255M20.242 4.066c1.483.793 2.694 1.959 3.424 3.21l-9.948-3.98c2.182-.594 4.45-.34 6.524.77m11.326 0c1.347-.721 2.779-1.08 4.214-1.08.77 0 1.547.105 2.31.31l-9.948 3.98c.73-1.251 1.941-2.417 3.424-3.21M50.723 16.16c-2.598-6.078-8.219-8.608-13.808-9.19l5.467-2.188a1.484 1.484 0 1 0 .274-2.616c-3.917-2.615-8.47-2.872-12.492-.72-1.78.951-3.248 2.312-4.259 3.837-1.011-1.525-2.479-2.886-4.259-3.837-4.023-2.152-8.575-1.895-12.491.72a1.484 1.484 0 0 0 .273 2.616l5.468 2.188c-5.59.582-11.21 3.112-13.81 9.19-.19.448-.15.958.104 1.37.258.413.699.672 1.184.7 2.006.105 3.936.186 5.81.186 4.889 0 9.399-.554 13.859-2.578l-9.665 17.587C5.555 34.713 0 37.851 0 43.743c0 .82.665 1.486 1.487 1.486h38.029c.82 0 1.487-.665 1.487-1.486 0-6.515-6.786-9.668-14.574-10.67l.817-17.948c3.793 2.78 8.681 3.465 13.672 3.465 2.243 0 4.505-.133 6.69-.258l1.828-.103a1.491 1.491 0 0 0 1.184-.699c.255-.412.294-.922.103-1.37" mask="url(#b)"/>
        </g>
    </g>
</svg>
